PathFileType	4	(X/Y/Z)	C:\Users\Biomechanik\SynologyDrive\AlexP\Athlete_03\Athlete_3_22_07_06\sq_80_EMG\marker_experimental.trc																																																																																																																																																																												
DataRate	CameraRate	NumFrames	NumMarkers	Units	OrigDataRate	OrigDataStartFrame	OrigNumFrames																																																																																																																																																																								
200	200	4	58	mm	200	701	1403																																																																																																																																																																								
Frame#	Time	BL			BR			GLAB			RFHD			LFHD			C7			T6			SPINMOL			SPINM2			SPINM3			T12			BELTOL			BELT2			BELT3			SACROL			SACR2			SACR3			LTHOL			LTH2			LTH3			LSHAOL			LSHA2			LSHA3			LHEE			LTOE			LM5			RTHOL			RTH2			RTH3			RSHAOL			RSHA2			RSHA3			RHEE			RTOE			RM5			STRN			XIPH			LACR			LUAOL			LUA2			LUA3			LLAOL			LLA2			LLA3			LWRU			RACR			RUAOL			RUA3			RLAOL			RLA2			RLA3			RWRU			USERMO0			USERMO1			USERMO2			USERMO3			USERMO4			USERMO5		
		X1	Y1	Z1	X2	Y2	Z2	X3	Y3	Z3	X4	Y4	Z4	X5	Y5	Z5	X6	Y6	Z6	X7	Y7	Z7	X8	Y8	Z8	X9	Y9	Z9	X10	Y10	Z10	X11	Y11	Z11	X12	Y12	Z12	X13	Y13	Z13	X14	Y14	Z14	X15	Y15	Z15	X16	Y16	Z16	X17	Y17	Z17	X18	Y18	Z18	X19	Y19	Z19	X20	Y20	Z20	X21	Y21	Z21	X22	Y22	Z22	X23	Y23	Z23	X24	Y24	Z24	X25	Y25	Z25	X26	Y26	Z26	X27	Y27	Z27	X28	Y28	Z28	X29	Y29	Z29	X30	Y30	Z30	X31	Y31	Z31	X32	Y32	Z32	X33	Y33	Z33	X34	Y34	Z34	X35	Y35	Z35	X36	Y36	Z36	X37	Y37	Z37	X38	Y38	Z38	X39	Y39	Z39	X40	Y40	Z40	X41	Y41	Z41	X42	Y42	Z42	X43	Y43	Z43	X44	Y44	Z44	X45	Y45	Z45	X46	Y46	Z46	X47	Y47	Z47	X48	Y48	Z48	X49	Y49	Z49	X50	Y50	Z50	X51	Y51	Z51	X52	Y52	Z52	X53	Y53	Z53	X54	Y54	Z54	X55	Y55	Z55	X56	Y56	Z56	X57	Y57	Z57	X58	Y58	Z58
																																																																																																																																																																															
702	3.505	201.4997711	1151.033325	-2285.540283	242.3063202	1186.873047	-63.91692352	551.1541748	1359.776123	-1151.751465	485.7558899	1373.014526	-1079.320313	492.3770752	1370.760986	-1233.874512	317.4112549	1273.958496	-1154.752441	170.5907745	1153.036987	-1164.764648	147.7525482	1132.857544	-1170.649902	106.8561249	1084.343994	-1122.055298	115.3011627	1080.177979	-1171.110352	95.52305603	1035.879517	-1169.189575	52.6411171	1016.625061	-1167.297729	22.92393494	962.4212646	-1116.781616	18.77267456	964.409668	-1166.762451	-14.15950298	890.6036377	-1195.759766	-5.416770458	899.0643921	-1146.198364	-42.34925079	845.0773315	-1157.111938	123.3289642	690.8002319	-1444.321289	110.8853836	612.0324097	-1452.921875	150.842865	639.8456421	-1466.643066	195.660202	324.0361023	-1568.125854	151.6200714	258.6029663	-1562.773926	200.1022186	262.3780823	-1573.787109	117.2824631	37.62252808	-1509.572144	323.1106873	48.59428787	-1550.852295	265.320282	25.37163162	-1648.773926	111.9333572	660.2163086	-889.1103516	173.3706665	632.2146606	-846.5410156	132.9684753	607.531311	-863.324585	147.5571747	320.6267395	-775.1804199	180.1714325	250.8742676	-756.5406494	136.22612	260.0787964	-779.0874634	91.32377625	38.52657318	-845.8733521	283.4892578	45.6365509	-767.2091064	216.0867004	36.75031662	-682.953125	407.0999756	1123.444946	-1167.649536	367.5700073	967.9784546	-1163.078735	288.0369263	1212.417847	-1353.04834	155.1778107	1127.537354	-1383.457153	115.701828	1089.734375	-1346.240967	120.0147095	1083.946045	-1396.237061	104.6218185	1050.067017	-1469.797852	149.0079803	1063.892334	-1515.030762	147.165741	1097.021729	-1477.446777	196.3208771	1138.020996	-1530.128174	298.9818115	1213.284912	-978.4723511	175.1448822	1111.552124	-935.9150391	117.2684097	1088.993774	-937.6914062	126.4967575	1076.094116	-859.7090454	173.4166412	1119.841797	-867.6063232	167.0664063	1103.42041	-819.4256592	201.2004242	1142.760376	-801.0038452	0.201658994	0.036166199	-0.235023007	0.093442202	0.080785297	-0.037617199	0.053823002	0.0223908	-0.062731899	0.0280935	0.204604	-0.77305001	0.364753008	2.990329981	-0.350474	2.802489996	0	0
703	3.51	201.4725647	1148.609375	-2285.51416	242.5804443	1184.378052	-63.91403198	551.5090942	1357.192627	-1151.797607	486.1402588	1370.513916	-1079.341187	492.7195435	1368.170532	-1233.911133	317.6550903	1271.579956	-1154.674805	170.7065125	1150.872681	-1164.723999	147.8738861	1130.780762	-1170.620972	106.8563385	1082.375	-1122.022339	115.3305664	1078.158691	-1171.067627	95.48073578	1034.001709	-1169.118896	52.52355957	1015.032104	-1167.267578	22.56827164	960.9644775	-1116.745728	18.44500732	962.9536743	-1166.72998	-14.77809715	889.3400879	-1195.719482	-6.02177763	897.7628784	-1146.152832	-43.11169815	843.8883057	-1157.086304	122.6884308	689.9918823	-1444.496216	110.5637283	611.2040405	-1453.368652	150.4022675	639.2360229	-1467.003662	195.9884949	323.8990479	-1568.753052	151.8570862	258.540741	-1563.233887	200.3432922	262.2228699	-1574.268311	117.2683105	37.63937759	-1509.606079	323.0915222	48.60932922	-1550.891235	265.3021851	25.34593201	-1648.805786	111.2916794	659.3268433	-888.680542	172.8880005	631.8252563	-846.0144043	132.6207123	606.8535767	-862.7022095	147.8675079	320.499054	-774.4871216	180.3944092	250.6602936	-756.0391235	136.453125	259.9780884	-778.5496826	91.29471588	38.5329628	-845.8444214	283.4761658	45.65751648	-767.1902466	216.0708618	36.73169327	-682.9312134	407.1253967	1120.95105	-1167.548218	367.29599	965.4849854	-1162.939819	288.2120972	1210.0354	-1352.998291	155.2518768	1125.321899	-1383.414673	115.7386856	1087.575073	-1346.194214	120.0484924	1081.77417	-1396.188599	104.6067505	1047.887573	-1469.749878	149.0036926	1061.644409	-1514.991089	147.2028198	1094.791626	-1477.409546	196.3872833	1135.713379	-1530.107178	299.1406555	1210.918579	-978.399231	175.2120819	1109.313965	-935.8085937	117.3049774	1086.848999	-937.5874634	126.5709457	1073.87439	-859.6152344	173.5257568	1117.575562	-867.5372314	167.2042999	1101.145508	-819.364563	201.3787537	1140.450928	-800.9832153	0.203731999	0.037956402	-0.236178994	0.089336202	0.083323598	-0.037063401	0.054419499	0.02122	-0.063712098	0.0292695	0.203001007	-0.768974006	0.365640014	2.990279913	-0.351805001	2.802910089	0	0
704	3.515	201.4477539	1146.177124	-2285.486816	242.8582916	1181.880371	-63.91032791	551.8731689	1354.622437	-1151.839966	486.5396118	1368.025391	-1079.352905	493.0666504	1365.598267	-1233.939941	317.9021912	1269.213013	-1154.589478	170.8313293	1148.715942	-1164.680176	148.0061951	1128.713989	-1170.589722	106.8671875	1080.417847	-1121.985962	115.3711319	1076.149658	-1171.021606	95.45078278	1032.137329	-1169.043701	52.41783142	1013.455933	-1167.231812	22.22459412	959.526123	-1116.704102	18.12817383	961.5162354	-1166.691162	-15.37778187	888.1259766	-1195.673218	-6.60181284	896.5085449	-1146.099854	-43.86384201	842.7576294	-1157.052734	122.028862	689.2030029	-1444.663818	110.2087631	610.4007568	-1453.807617	149.9324799	638.6430664	-1467.356934	196.2702942	323.7669373	-1569.365356	152.0571899	258.4786377	-1563.678833	200.5453491	262.0744019	-1574.740845	117.2523346	37.65457153	-1509.641357	323.0701599	48.62598038	-1550.93335	265.2828979	25.31856918	-1648.8396	110.6097717	658.4717407	-888.2406616	172.3486481	631.4573975	-845.4695435	132.2169189	606.206543	-862.0697021	148.1067963	320.3756714	-773.7908936	180.5563812	250.4583893	-755.5252075	136.6212921	259.880127	-778.0067139	91.26325989	38.54012299	-845.8137817	283.4597473	45.68418121	-767.163269	216.0505219	36.70682144	-682.9032593	407.1602173	1118.474854	-1167.44458	367.0370789	963.008728	-1162.797974	288.3908386	1207.664429	-1352.945923	155.340744	1123.106689	-1383.376221	115.7900543	1085.416016	-1346.151978	120.0996704	1079.599731	-1396.143555	104.6110382	1045.703369	-1469.700684	149.0172272	1059.396362	-1514.950806	147.2542419	1092.560791	-1477.370483	196.4635925	1133.409302	-1530.084839	299.3035278	1208.564453	-978.3255005	175.2908325	1107.079102	-935.6970215	117.3544922	1084.703613	-937.4790649	126.6582031	1071.6521	-859.5183716	173.6430664	1115.31189	-867.4625854	167.353302	1098.87085	-819.3004761	201.5649414	1138.144775	-800.9599609	0.205318004	0.040030502	-0.237905994	0.0851034	0.085497998	-0.036442298	0.054606799	0.020117	-0.064573303	0.0307674	0.201289997	-0.764503002	0.366607994	2.990250111	-0.353469014	2.803149939	0	0
705	3.52	201.4258728	1143.738281	-2285.45752	243.1401825	1179.382446	-63.90561676	552.2440186	1352.066772	-1151.876953	486.9508057	1365.548828	-1079.35498	493.4178467	1363.047241	-1233.960083	318.1516724	1266.858521	-1154.499756	170.9653931	1146.566284	-1164.633667	148.1496887	1126.656494	-1170.556763	106.8892822	1078.472168	-1121.946411	115.4234314	1074.14978	-1170.972046	95.43383026	1030.2854	-1168.963501	52.32407379	1011.895447	-1167.188354	21.89360237	958.1047363	-1116.654785	17.82227707	960.0962524	-1166.643921	-15.96015644	886.9536743	-1195.620117	-7.159952164	895.2954712	-1146.038696	-44.60633469	841.6779175	-1157.009888	121.349411	688.4310913	-1444.824951	109.8208084	609.6195068	-1454.238159	149.4334412	638.06427	-1467.703125	196.5074158	323.6403198	-1569.961304	152.2220154	258.4172058	-1564.108032	200.7098694	261.933136	-1575.203979	117.234642	37.66807175	-1509.677612	323.0467834	48.64416885	-1550.978271	265.26297	25.28975677	-1648.874634	109.8906021	657.6499023	-887.789978	171.7562714	631.1102295	-844.9061279	131.7607269	605.5889282	-861.4266968	148.2781372	320.2575989	-773.0910034	180.6603241	250.2689972	-754.9987793	136.7335052	259.7860413	-777.4578857	91.23049927	38.54919052	-845.7820435	283.4403381	45.71609879	-767.1286011	216.0259247	36.67589951	-682.8695068	407.2047729	1116.017822	-1167.342041	366.7938538	960.5510254	-1162.658081	288.5718994	1205.305542	-1352.892822	155.4427643	1120.892334	-1383.342285	115.8545685	1083.257446	-1346.114624	120.1665649	1077.423218	-1396.102295	104.6336975	1043.514893	-1469.651245	149.0478973	1057.148804	-1514.9104	147.3192291	1090.329468	-1477.330322	196.5493774	1131.109375	-1530.061401	299.4711304	1206.222534	-978.2528076	175.3820343	1104.84729	-935.5822144	117.4178391	1082.557495	-937.3678589	126.7589798	1069.427979	-859.4197388	173.7691345	1113.051392	-867.3830566	167.5135498	1096.596924	-819.2341309	201.7589569	1135.842529	-800.9344482	0.206410006	0.0423811	-0.240374997	0.080976903	0.087165497	-0.035758398	0.054461598	0.019143101	-0.065272003	0.0325328	0.199561	-0.759507	0.36757201	2.99029994	-0.355374008	2.80328989	0	0
